<svg width="16" height="16" viewBox="0 0 20 21" fill="none" xmlns="http://www.w3.org/2000/svg">
    <g clip-path="url(#clip0_2448_119056)">
        <path
            d="M3.33325 5.5C3.33325 6.88083 6.31825 8 9.99992 8C13.6816 8 16.6666 6.88083 16.6666 5.5C16.6666 4.11917 13.6816 3 9.99992 3C6.31825 3 3.33325 4.11917 3.33325 5.5Z"
            fill="#0D47A1" stroke="black" stroke-width="2" stroke-linecap="round" stroke-linejoin="round" />
        <path
            d="M3.33325 5.5V10.5C3.33325 11.8808 6.31825 13 9.99992 13C10.4474 13 10.8849 12.9833 11.3083 12.9517M16.6666 11.75V5.5"
            stroke="black" stroke-width="2" stroke-linecap="round" stroke-linejoin="round" />
        <path
            d="M3.33325 10.5V15.5C3.33325 16.8808 6.31825 18 9.99992 18C10.3199 18 10.6349 17.9917 10.9433 17.975M35.8333 2.16667L39.9999 -2"
            stroke="black" stroke-width="2" stroke-linecap="round" stroke-linejoin="round" />
        <path
            d="M15.2778 15.0833V13H13.1944C13.0103 13 12.8336 13.0732 12.7034 13.2034C12.5732 13.3336 12.5 13.5103 12.5 13.6944V19.25C12.5 19.4342 12.5732 19.6108 12.7034 19.741C12.8336 19.8713 13.0103 19.9444 13.1944 19.9444H17.3611C17.5453 19.9444 17.7219 19.8713 17.8522 19.741C17.9824 19.6108 18.0556 19.4342 18.0556 19.25V15.7778H15.9722C15.788 15.7778 15.6114 15.7046 15.4812 15.5744C15.3509 15.4441 15.2778 15.2675 15.2778 15.0833ZM15.2778 16.4722C15.3468 16.4722 15.4131 16.4997 15.4619 16.5485C15.5108 16.5973 15.5382 16.6636 15.5382 16.7326V18.6424C15.5382 18.7114 15.5108 18.7777 15.4619 18.8265C15.4131 18.8753 15.3468 18.9028 15.2778 18.9028C15.2087 18.9028 15.1425 18.8753 15.0936 18.8265C15.0448 18.7777 15.0174 18.7114 15.0174 18.6424V16.7326C15.0174 16.6636 15.0448 16.5973 15.0936 16.5485C15.1425 16.4997 15.2087 16.4722 15.2778 16.4722ZM14.1493 17.8611C14.2184 17.8611 14.2846 17.8885 14.3334 17.9374C14.3823 17.9862 14.4097 18.0525 14.4097 18.1215V18.6424C14.4097 18.7114 14.3823 18.7777 14.3334 18.8265C14.2846 18.8753 14.2184 18.9028 14.1493 18.9028C14.0802 18.9028 14.014 18.8753 13.9652 18.8265C13.9163 18.7777 13.8889 18.7114 13.8889 18.6424V18.1215C13.8889 18.0525 13.9163 17.9862 13.9652 17.9374C14.014 17.8885 14.0802 17.8611 14.1493 17.8611ZM16.4062 17.1667C16.4753 17.1667 16.5416 17.1941 16.5904 17.2429C16.6392 17.2918 16.6667 17.358 16.6667 17.4271V18.6424C16.6667 18.7114 16.6392 18.7777 16.5904 18.8265C16.5416 18.8753 16.4753 18.9028 16.4062 18.9028C16.3372 18.9028 16.2709 18.8753 16.2221 18.8265C16.1733 18.7777 16.1458 18.7114 16.1458 18.6424V17.4271C16.1458 17.358 16.1733 17.2918 16.2221 17.2429C16.2709 17.1941 16.3372 17.1667 16.4062 17.1667ZM15.7986 15.0833V13.1736L17.8819 15.2569H15.9722C15.9262 15.2569 15.882 15.2387 15.8495 15.2061C15.8169 15.1735 15.7986 15.1294 15.7986 15.0833Z"
            fill="#0D47A1" />
    </g>
    <defs>
        <clipPath id="clip0_2448_119056">
            <rect width="20" height="20" fill="white" transform="translate(0 0.5)" />
        </clipPath>
    </defs>
</svg>