<svg width="24" height="25" viewBox="0 0 24 25" fill="none" xmlns="http://www.w3.org/2000/svg">
<path fill-rule="evenodd" clip-rule="evenodd" d="M14.325 3.84955H9.67501C9.52755 4.57 9.17173 5.23128 8.65173 5.75128C8.13173 6.27127 7.47046 6.62709 6.75001 6.77455C6.74972 6.99122 6.74972 7.20788 6.75001 7.42455C7.47046 7.57201 8.13173 7.92783 8.65173 8.44783C9.17173 8.96782 9.52755 9.6291 9.67501 10.3496H14.325C14.4725 9.6291 14.8283 8.96782 15.3483 8.44783C15.8683 7.92783 16.5296 7.57201 17.25 7.42455C17.2502 7.20788 17.2502 6.99122 17.25 6.77455C16.5296 6.62709 15.8683 6.27127 15.3483 5.75128C14.8283 5.23128 14.4725 4.57 14.325 3.84955ZM14.93 2.35255C14.655 2.34955 14.363 2.34955 14.052 2.34955H9.94801C9.63801 2.34955 9.34501 2.34955 9.07101 2.35255C9.01639 2.34763 8.96141 2.34864 8.90701 2.35555C8.45501 2.36355 8.05401 2.38255 7.70601 2.42955C7.07801 2.51355 6.51101 2.69955 6.05601 3.15455C5.60001 3.61055 5.41401 4.17755 5.33001 4.80455C5.28301 5.15355 5.26401 5.55455 5.25601 6.00655C5.24916 6.06062 5.24815 6.11527 5.25301 6.16955C5.25001 6.44455 5.25001 6.73755 5.25001 7.04755V7.15155C5.25001 7.46155 5.25001 7.75455 5.25301 8.02955C5.24816 8.08384 5.24917 8.13848 5.25601 8.19255C5.26401 8.64555 5.28301 9.04555 5.33001 9.39355C5.41401 10.0216 5.60001 10.5886 6.05601 11.0436C6.51101 11.4996 7.07801 11.6856 7.70601 11.7696C8.05401 11.8166 8.45501 11.8356 8.90701 11.8436C8.9614 11.8506 9.0164 11.8516 9.07101 11.8466C9.34501 11.8496 9.63801 11.8496 9.94801 11.8496H14.052C14.362 11.8496 14.655 11.8496 14.93 11.8466C14.9843 11.8515 15.0389 11.8505 15.093 11.8436C15.546 11.8356 15.947 11.8166 16.294 11.7696C16.922 11.6856 17.489 11.4996 17.944 11.0436C18.4 10.5886 18.586 10.0216 18.67 9.39355C18.7174 8.99494 18.7421 8.59396 18.744 8.19255C18.7508 8.13848 18.7518 8.08384 18.747 8.02955C18.75 7.75455 18.75 7.46155 18.75 7.15155V7.04755C18.75 6.73755 18.75 6.44455 18.747 6.16955C18.752 6.11527 18.751 6.06061 18.744 6.00655C18.7419 5.60515 18.7172 5.20418 18.67 4.80555C18.586 4.17755 18.4 3.61055 17.945 3.15555C17.489 2.69955 16.922 2.51355 16.295 2.42955C15.8961 2.38228 15.4947 2.35757 15.093 2.35555C15.0389 2.34868 14.9843 2.34767 14.93 2.35255ZM15.894 3.89355C16.0072 4.19273 16.1828 4.46442 16.409 4.69061C16.6351 4.9168 16.9068 5.09233 17.206 5.20555C17.1997 5.13873 17.192 5.07205 17.183 5.00555C17.122 4.54355 17.014 4.34555 16.883 4.21555C16.753 4.08555 16.556 3.97855 16.095 3.91555C16.0285 3.90687 15.9618 3.89953 15.895 3.89355H15.894ZM17.206 8.99355C16.9068 9.10678 16.6351 9.2823 16.409 9.5085C16.1828 9.73469 16.0072 10.0064 15.894 10.3056C15.964 10.2996 16.031 10.2916 16.094 10.2836C16.556 10.2206 16.754 10.1136 16.884 9.98355C17.014 9.85355 17.122 9.65555 17.184 9.19355C17.192 9.13055 17.2 9.06355 17.206 8.99355ZM8.10601 10.3056C7.99278 10.0064 7.81726 9.73469 7.59106 9.5085C7.36487 9.2823 7.09318 9.10678 6.79401 8.99355C6.80101 9.06355 6.80801 9.13055 6.81701 9.19355C6.87901 9.65555 6.98601 9.85355 7.11701 9.98355C7.24701 10.1136 7.44401 10.2206 7.90501 10.2836C7.96901 10.2916 8.03601 10.2996 8.10601 10.3056ZM6.79401 5.20555C7.09318 5.09233 7.36487 4.9168 7.59106 4.69061C7.81726 4.46442 7.99278 4.19273 8.10601 3.89355C8.03601 3.89955 7.96901 3.90755 7.90601 3.91655C7.44401 3.97855 7.24601 4.08555 7.11601 4.21655C6.98601 4.34655 6.87901 4.54355 6.81601 5.00455L6.79401 5.20555ZM12 6.84955C11.9337 6.84955 11.8701 6.87589 11.8232 6.92277C11.7763 6.96966 11.75 7.03325 11.75 7.09955C11.75 7.16586 11.7763 7.22944 11.8232 7.27633C11.8701 7.32321 11.9337 7.34955 12 7.34955C12.0663 7.34955 12.1299 7.32321 12.1768 7.27633C12.2237 7.22944 12.25 7.16586 12.25 7.09955C12.25 7.03325 12.2237 6.96966 12.1768 6.92277C12.1299 6.87589 12.0663 6.84955 12 6.84955ZM10.25 7.09955C10.25 6.63542 10.4344 6.1903 10.7626 5.86211C11.0908 5.53393 11.5359 5.34955 12 5.34955C12.4641 5.34955 12.9093 5.53393 13.2374 5.86211C13.5656 6.1903 13.75 6.63542 13.75 7.09955C13.75 7.56368 13.5656 8.0088 13.2374 8.33699C12.9093 8.66518 12.4641 8.84955 12 8.84955C11.5359 8.84955 11.0908 8.66518 10.7626 8.33699C10.4344 8.0088 10.25 7.56368 10.25 7.09955ZM8.68401 14.5476C10.55 14.1866 12.547 14.2676 14.164 15.2316C14.39 15.3666 14.604 15.5356 14.789 15.7436C15.165 16.1666 15.359 16.6906 15.368 17.2166C15.559 17.0936 15.751 16.9566 15.945 16.8096L17.753 15.4446C18.2057 15.1119 18.7528 14.9325 19.3145 14.9325C19.8763 14.9325 20.4233 15.1119 20.876 15.4446C21.712 16.0746 22.046 17.2076 21.447 18.1676C21.022 18.8486 20.381 19.7916 19.73 20.3956C19.07 21.0056 18.133 21.5196 17.424 21.8616C16.562 22.2776 15.632 22.5076 14.727 22.6536C12.877 22.9536 10.953 22.9076 9.12501 22.5306C8.18233 22.3366 7.22244 22.2384 6.26001 22.2376H4.00001C3.80109 22.2376 3.61033 22.1585 3.46968 22.0179C3.32902 21.8772 3.25001 21.6865 3.25001 21.4876C3.25001 21.2886 3.32902 21.0979 3.46968 20.9572C3.61033 20.8166 3.80109 20.7376 4.00001 20.7376H6.26001C7.32201 20.7376 8.39501 20.8486 9.42801 21.0616C11.0942 21.4034 12.8085 21.441 14.488 21.1726C15.316 21.0386 16.09 20.8396 16.772 20.5106C17.455 20.1806 18.223 19.7466 18.71 19.2956C19.203 18.8386 19.754 18.0476 20.175 17.3736C20.302 17.1696 20.284 16.8766 19.973 16.6416C19.603 16.3616 19.026 16.3616 18.657 16.6416L16.85 18.0066C16.128 18.5516 15.24 19.1346 14.139 19.3106C14.0237 19.3288 13.908 19.3448 13.792 19.3586C13.0913 19.4394 12.3841 19.4461 11.682 19.3786C11.5822 19.3717 11.4848 19.3449 11.3955 19.2998C11.3062 19.2546 11.2269 19.1921 11.1621 19.1159C11.0973 19.0396 11.0485 18.9512 11.0184 18.8558C10.9883 18.7604 10.9776 18.6599 10.987 18.5603C10.9963 18.4607 11.0255 18.364 11.0728 18.2758C11.1201 18.1877 11.1845 18.1099 11.2623 18.047C11.3401 17.9841 11.4297 17.9374 11.5259 17.9097C11.622 17.882 11.7227 17.8738 11.822 17.8856C12.3768 17.9394 12.9355 17.9384 13.49 17.8826L13.52 17.8796C13.6133 17.8217 13.6926 17.7438 13.7521 17.6515C13.8117 17.5592 13.85 17.4549 13.8644 17.3461C13.8787 17.2372 13.8687 17.1265 13.8351 17.022C13.8015 16.9174 13.7451 16.8217 13.67 16.7416C13.5903 16.6538 13.4976 16.5789 13.395 16.5196C12.214 15.8146 10.636 15.6976 8.96901 16.0196C7.34076 16.3471 5.79718 17.0057 4.43401 17.9546C4.35364 18.0115 4.26283 18.0522 4.16677 18.0741C4.07071 18.096 3.97127 18.0987 3.87414 18.0822C3.77701 18.0657 3.68409 18.0302 3.60068 17.9777C3.51727 17.9253 3.445 17.8569 3.38801 17.7766C3.33101 17.6962 3.29041 17.6054 3.26851 17.5093C3.24661 17.4133 3.24384 17.3138 3.26037 17.2167C3.2769 17.1196 3.3124 17.0266 3.36484 16.9432C3.41728 16.8598 3.48564 16.7875 3.56601 16.7306C5.10365 15.6585 6.84599 14.9154 8.68401 14.5476Z" fill="#212121"/>
</svg>
