<svg width="16" height="16" viewBox="0 0 21 21" fill="none" xmlns="http://www.w3.org/2000/svg">
    <path d="M12 13H5C3.93913 13 2.92172 13.4214 2.17157 14.1716C1.42143 14.9217 1 15.9391 1 17V19" stroke="#001B3D"
        stroke-width="2" stroke-linecap="round" stroke-linejoin="round" />
    <path d="M9 9C11.2091 9 13 7.20914 13 5C13 2.79086 11.2091 1 9 1C6.79086 1 5 2.79086 5 5C5 7.20914 6.79086 9 9 9Z"
        stroke="#001B3D" stroke-width="2" stroke-linecap="round" stroke-linejoin="round" />
    <g clip-path="url(#clip0_7532_20629)">
        <path
            d="M19.2863 16.8675C19.3013 16.7475 19.3126 16.6275 19.3126 16.5C19.3126 16.3725 19.3013 16.2525 19.2863 16.1325L20.0776 15.5138C20.1488 15.4575 20.1676 15.3562 20.1226 15.2737L19.3726 13.9762C19.3276 13.8937 19.2263 13.8638 19.1438 13.8938L18.2101 14.2688C18.0151 14.1188 17.8051 13.995 17.5763 13.9013L17.4338 12.9075C17.4226 12.8175 17.3438 12.75 17.2501 12.75H15.7501C15.6563 12.75 15.5776 12.8175 15.5663 12.9075L15.4238 13.9013C15.1951 13.995 14.9851 14.1225 14.7901 14.2688L13.8563 13.8938C13.7701 13.86 13.6726 13.8937 13.6276 13.9762L12.8776 15.2737C12.8288 15.3562 12.8513 15.4575 12.9226 15.5138L13.7138 16.1325C13.6988 16.2525 13.6876 16.3763 13.6876 16.5C13.6876 16.6237 13.6988 16.7475 13.7138 16.8675L12.9226 17.4862C12.8513 17.5425 12.8326 17.6438 12.8776 17.7263L13.6276 19.0237C13.6726 19.1062 13.7738 19.1363 13.8563 19.1063L14.7901 18.7313C14.9851 18.8813 15.1951 19.005 15.4238 19.0988L15.5663 20.0925C15.5776 20.1825 15.6563 20.25 15.7501 20.25H17.2501C17.3438 20.25 17.4226 20.1825 17.4338 20.0925L17.5763 19.0988C17.8051 19.005 18.0151 18.8775 18.2101 18.7313L19.1438 19.1063C19.2301 19.14 19.3276 19.1062 19.3726 19.0237L20.1226 17.7263C20.1676 17.6438 20.1488 17.5425 20.0776 17.4862L19.2863 16.8675ZM16.5001 17.8125C15.7763 17.8125 15.1876 17.2238 15.1876 16.5C15.1876 15.7763 15.7763 15.1875 16.5001 15.1875C17.2238 15.1875 17.8126 15.7763 17.8126 16.5C17.8126 17.2238 17.2238 17.8125 16.5001 17.8125Z"
            fill="#0D47A1" />
    </g>
    <defs>
        <clipPath id="clip0_7532_20629">
            <rect width="9" height="9" fill="white" transform="translate(12 12)" />
        </clipPath>
    </defs>
</svg>