<svg width="26" height="32" viewBox="0 0 26 32" fill="none" xmlns="http://www.w3.org/2000/svg">
<mask id="mask0_3470_13053" style="mask-type:alpha" maskUnits="userSpaceOnUse" x="0" y="0" width="26" height="21">
<path d="M0.0254455 11.8295C0.521444 18.9777 6.82112 20.6189 9.90895 20.546V11.5378C11.6012 9.08694 14.7717 8.98482 16.1454 9.24011C22.1849 9.85282 24.8862 6.286 25.4819 4.42601C20.551 -0.650688 13.0454 -0.339473 9.90895 0.450721C6.40778 1.26523 -0.470553 4.6813 0.0254455 11.8295Z" fill="#D9D9D9"/>
</mask>
<g mask="url(#mask0_3470_13053)">
<rect x="-0.145874" y="11.5247" width="10.0659" height="9.77409" fill="#FFD026"/>
<rect x="-0.145874" width="10.0659" height="11.5247" fill="#FFA600"/>
<rect x="9.91998" width="5.90822" height="11.5247" fill="#F44336"/>
<rect x="15.8282" width="10.1388" height="11.3788" fill="#D32F2F"/>
</g>
<mask id="mask1_3470_13053" style="mask-type:alpha" maskUnits="userSpaceOnUse" x="0" y="11" width="26" height="21">
<path d="M25.5294 20.1705C25.0334 13.0223 18.7337 11.3811 15.6459 11.454L15.6459 20.4622C13.9536 22.9131 10.7831 23.0152 9.4094 22.7599C3.36989 22.1472 0.668638 25.714 0.0729538 27.574C5.00377 32.6507 12.5094 32.3395 15.6459 31.5493C19.147 30.7348 26.0254 27.3187 25.5294 20.1705Z" fill="#D9D9D9"/>
</mask>
<g mask="url(#mask1_3470_13053)">
<rect x="25.7007" y="20.4753" width="10.0659" height="9.77409" transform="rotate(180 25.7007 20.4753)" fill="#8BC13F"/>
<rect x="25.7007" y="32" width="10.0659" height="11.5247" transform="rotate(180 25.7007 32)" fill="#0E7165"/>
<rect x="15.6348" y="32" width="5.90822" height="11.5247" transform="rotate(180 15.6348 32)" fill="#1976D2"/>
<rect x="9.72662" y="32" width="10.1388" height="11.3788" transform="rotate(180 9.72662 32)" fill="#2196F3"/>
</g>
</svg>
