<svg width="21" height="21" viewBox="0 0 21 21" fill="none" xmlns="http://www.w3.org/2000/svg">
<path d="M12.17 11.96L13.57 9.54C13.66 9.39 13.62 9.2 13.49 9.09L12.01 7.93C12.04 7.71 12.06 7.48 12.06 7.25C12.06 7.02 12.04 6.79 12.01 6.56L13.49 5.4C13.62 5.29 13.66 5.1 13.57 4.95L12.17 2.53C12.08 2.38 11.9 2.32 11.74 2.38L10 3.08C9.64 2.8 9.25 2.57 8.82 2.39L8.56 0.54C8.54322 0.459122 8.49944 0.386356 8.43583 0.333656C8.37223 0.280955 8.29259 0.251455 8.21 0.25H5.41C5.24 0.25 5.09 0.38 5.06 0.55L4.8 2.4C4.38 2.58 3.98 2.81 3.62 3.09L1.88 2.39C1.72 2.33 1.54 2.39 1.45 2.54L0.0500033 4.96C-0.0399967 5.11 3.48687e-06 5.3 0.130003 5.41L1.61 6.57C1.58 6.79 1.56 7.02 1.56 7.25C1.56 7.48 1.58 7.71 1.61 7.94L0.130003 9.1C3.48687e-06 9.21 -0.0399967 9.4 0.0500033 9.55L1.45 11.97C1.54 12.12 1.72 12.18 1.88 12.12L3.62 11.42C3.98 11.7 4.37 11.93 4.8 12.11L5.06 13.96C5.09 14.12 5.24 14.25 5.41 14.25H8.21C8.38 14.25 8.53 14.12 8.56 13.95L8.82 12.1C9.24 11.92 9.64 11.69 10 11.41L11.74 12.11C11.9 12.17 12.08 12.11 12.17 11.96ZM6.81 9.25C5.71 9.25 4.81 8.35 4.81 7.25C4.81 6.15 5.71 5.25 6.81 5.25C7.91 5.25 8.81 6.15 8.81 7.25C8.81 8.35 7.91 9.25 6.81 9.25ZM19.92 16.92L18.96 16.18C18.98 16.04 19 15.89 19 15.74C19 15.59 18.99 15.44 18.96 15.3L19.91 14.56C19.99 14.49 20.02 14.37 19.96 14.27L19.06 12.72C19.01 12.62 18.89 12.59 18.78 12.62L17.67 13.07C17.44 12.89 17.19 12.74 16.91 12.63L16.74 11.45C16.736 11.3966 16.7124 11.3465 16.6736 11.3095C16.6347 11.2726 16.5836 11.2513 16.53 11.25H14.74C14.63 11.25 14.53 11.33 14.52 11.44L14.35 12.62C14.08 12.74 13.82 12.88 13.59 13.06L12.48 12.61C12.429 12.5908 12.3729 12.5904 12.3217 12.6087C12.2704 12.627 12.2273 12.6629 12.2 12.71L11.3 14.26C11.25 14.36 11.26 14.48 11.35 14.55L12.3 15.29C12.2588 15.5819 12.2588 15.8781 12.3 16.17L11.35 16.91C11.27 16.98 11.24 17.1 11.3 17.2L12.2 18.75C12.25 18.85 12.37 18.88 12.48 18.85L13.59 18.4C13.82 18.58 14.07 18.73 14.35 18.84L14.52 20.02C14.54 20.13 14.63 20.21 14.74 20.21H16.53C16.64 20.21 16.74 20.13 16.75 20.02L16.92 18.84C17.19 18.72 17.45 18.58 17.67 18.4L18.79 18.85C18.89 18.89 19.01 18.85 19.07 18.75L19.97 17.2C20.03 17.11 20 16.99 19.92 16.92ZM15.63 17.08C15.2718 17.0799 14.9284 16.9375 14.6752 16.6841C14.422 16.4307 14.2799 16.0872 14.28 15.729C14.2801 15.3708 14.4225 15.0274 14.6759 14.7742C14.9293 14.521 15.2728 14.3789 15.631 14.379C15.9892 14.3791 16.3326 14.5215 16.5858 14.7749C16.839 15.0283 16.9811 15.3718 16.981 15.73C16.9809 16.0882 16.8385 16.4316 16.5851 16.6848C16.3317 16.938 15.9882 17.0801 15.63 17.08Z" fill="#1976D2"/>
</svg>
