<svg width="16" height="18" viewBox="0 0 16 18" fill="none" xmlns="http://www.w3.org/2000/svg">
<rect x="7.05688" y="5.43942" width="1.56819" height="1.35986" fill="#0D47A1"/>
<rect x="7.05688" y="11.5588" width="1.56819" height="1.35986" fill="#0D47A1"/>
<path d="M5.08252 10.5449V10.4614H6.34375V10.5405C6.34375 10.8774 6.46387 11.1309 6.7041 11.3008C6.94434 11.4707 7.27979 11.5557 7.71045 11.5557C8.14111 11.5557 8.4707 11.4736 8.69922 11.3096C8.93066 11.1455 9.04639 10.9302 9.04639 10.6636C9.04932 10.4028 8.94971 10.2036 8.74756 10.0659C8.54834 9.92822 8.07959 9.77294 7.34131 9.60009C6.59717 9.42724 6.05371 9.19579 5.71094 8.90575C5.36816 8.61279 5.19678 8.1997 5.19678 7.6665C5.19678 7.13036 5.4165 6.69091 5.85596 6.34814C6.29541 6.00243 6.90039 5.82958 7.6709 5.82958C8.43555 5.82958 9.04492 6.01562 9.49902 6.38769C9.95312 6.75683 10.1802 7.21093 10.1802 7.74999V7.83349H8.92773V7.75439C8.92773 7.45849 8.82227 7.22118 8.61133 7.04247C8.40332 6.86083 8.08984 6.77001 7.6709 6.77001C7.25781 6.77001 6.95166 6.84179 6.75244 6.98534C6.55615 7.1289 6.45801 7.312 6.45801 7.53466C6.45801 7.7954 6.55176 7.98876 6.73926 8.11474C6.92969 8.24072 7.35596 8.38134 8.01807 8.53661C8.771 8.71239 9.33936 8.95702 9.72314 9.2705C10.1099 9.58398 10.3032 10.0249 10.3032 10.5933C10.3032 11.1616 10.0688 11.6201 9.6001 11.9687C9.13428 12.3174 8.50439 12.4917 7.71045 12.4917C6.92236 12.4917 6.28662 12.3188 5.80322 11.9731C5.32275 11.6274 5.08252 11.1514 5.08252 10.5449Z" fill="#0D47A1"/>
<path d="M13.8141 5.75798C14.5512 5.7689 15.2883 5.76162 16 5.59783C15.9195 5.39765 15.8306 5.19747 15.7246 5.00093C14.7885 3.23204 13.1025 1.88536 10.9844 1.2011C8.86629 0.520475 6.56606 0.589629 4.50728 1.394C4.26582 1.48863 4.02859 1.59418 3.80408 1.70701L2.89754 0L0 4.50593L5.84591 5.56872L4.68096 3.37035C4.90548 3.25024 5.13847 3.14105 5.37993 3.04642C6.92613 2.44223 8.65025 2.39127 10.243 2.90083C11.8401 3.41402 13.1067 4.4295 13.8099 5.75434L13.8141 5.75798Z" fill="black"/>
<path d="M2.18586 12.242C1.44877 12.2311 0.711676 12.2384 0 12.4022C0.0804872 12.6024 0.169447 12.8025 0.275351 12.9991C1.21154 14.768 2.89754 16.1146 5.01562 16.7989C7.1337 17.4795 9.43394 17.4104 11.4927 16.606C11.7342 16.5114 11.9714 16.4058 12.1959 16.293L13.1025 18L16 13.4941L10.1541 12.4313L11.319 14.6297C11.0945 14.7498 10.8615 14.859 10.6201 14.9536C9.07387 15.5578 7.34975 15.6087 5.75695 15.0992C4.15991 14.586 2.8933 13.5705 2.1901 12.2457C2.18586 12.2457 2.18586 12.2457 2.18586 12.242Z" fill="black"/>
</svg>
