<svg width="16" height="16" viewBox="0 0 24 24" fill="none" xmlns="http://www.w3.org/2000/svg">
    <path
        d="M2 11.1836C2 9.1235 2 8.0939 2.468 7.2407C2.9342 6.3866 3.7883 5.8574 5.4956 4.7972L7.2956 3.6803C9.1001 2.5598 10.0028 2 11 2C11.9972 2 12.899 2.5598 14.7044 3.6803L16.5044 4.7972C18.2117 5.8574 19.0658 6.3866 19.5329 7.2407C20 8.0939 20 9.1235 20 11.1827V12.5525C20 16.0625 20 17.8184 18.9452 18.9092C17.8913 20 16.1939 20 12.8 20H9.2C5.8061 20 4.1087 20 3.0548 18.9092C2 17.8184 2 16.0634 2 12.5525V11.1836Z"
        stroke="black" stroke-width="1.8" />
    <path d="M11 13.7V16.4" stroke="#0D47A1" stroke-width="1.5" stroke-linecap="round" />
</svg>