<svg width="16" height="16" viewBox="0 0 18 18" fill="none" xmlns="http://www.w3.org/2000/svg">
    <path d="M10 11C10 9.89543 10.8954 9 12 9H17V13H12C10.8954 13 10 12.1046 10 11Z" fill="#0D47A1" />
    <path
        d="M1.75 5.75H15C15.6904 5.75 16.25 6.30964 16.25 7V15C16.25 15.6904 15.6904 16.25 15 16.25H3C2.30964 16.25 1.75 15.6904 1.75 15V5.75Z"
        stroke="#212121" stroke-width="1.5" />
    <path
        d="M1.75 2.5C1.75 1.80964 2.30964 1.25 3 1.25H12C12.6904 1.25 13.25 1.80964 13.25 2.5V4.5C13.25 5.19036 12.6904 5.75 12 5.75H3C2.30964 5.75 1.75 5.19036 1.75 4.5V2.5Z"
        stroke="#212121" stroke-width="1.5" />
</svg>