<svg width="16" height="16" viewBox="0 0 16 16" fill="none" xmlns="http://www.w3.org/2000/svg">
<g clip-path="url(#clip0_701_38528)">
<path d="M7.58668 1.34599C7.09543 1.80374 6.70142 2.35574 6.42814 2.96907C6.15486 3.5824 6.00791 4.24449 5.99607 4.91584C5.98422 5.5872 6.10772 6.25406 6.35919 6.87664C6.61067 7.49923 6.98496 8.06479 7.45975 8.53958C7.93455 9.01437 8.50011 9.38867 9.12269 9.64015C9.74528 9.89162 10.4121 10.0151 11.0835 10.0033C11.7548 9.99143 12.4169 9.84448 13.0303 9.5712C13.6436 9.29792 14.1956 8.90391 14.6533 8.41266C14.4413 11.9027 11.544 14.6667 8.00068 14.6667C4.31801 14.6667 1.33334 11.682 1.33334 7.99999C1.33334 4.45666 4.09734 1.55933 7.58668 1.34599Z" fill="#757575"/>
</g>
<defs>
<clipPath id="clip0_701_38528">
<rect width="16" height="16" fill="white"/>
</clipPath>
</defs>
</svg>
