<svg width="45" height="45" viewBox="0 0 45 45" fill="none" xmlns="http://www.w3.org/2000/svg">
<g clip-path="url(#clip0_3470_13071)">
<rect width="45" height="44.9357" rx="22.4678" fill="#E0E0E0"/>
<path d="M26.4195 28.1904H18.5805V32.365H26.4195V28.1904Z" fill="#ECB79E"/>
<path d="M20.7606 31.38C22.013 31.3331 23.2653 30.9578 24.193 30.3949C24.9816 29.9259 25.6309 29.4099 26.0948 28.7532C26.1876 28.6125 26.2803 28.4718 26.3731 28.3311V28.1904H18.5805V31.2861C19.2763 31.38 20.0184 31.38 20.7606 31.38Z" fill="#CE9980"/>
<path d="M22.4768 4.78442C17.4673 4.92514 13.6638 6.98899 13.6638 14.1656C13.6638 18.434 14.0348 19.6535 15.2872 24.5317C16.1221 27.9089 20.6214 29.6444 22.384 29.7851C22.4304 29.7851 22.4768 29.7851 22.4768 29.7851C22.5232 29.7851 22.5696 29.7851 22.5696 29.7851C24.2858 29.6913 28.7851 27.9089 29.6664 24.5317C30.8724 19.7004 31.2899 18.434 31.2899 14.1656C31.2899 7.0359 27.4863 4.92514 22.4768 4.78442Z" fill="#ECB79E"/>
<path d="M30.3158 17.1207L29.7592 21.3422C31.8928 22.2803 32.2639 17.3083 32.2639 17.3083C31.7537 16.0887 30.3158 17.1207 30.3158 17.1207Z" fill="#ECB79E"/>
<path d="M12.4114 17.3552C12.4114 17.3552 12.7361 22.3272 14.9161 21.3891L14.3595 17.1676C14.3595 17.1207 12.9216 16.0887 12.4114 17.3552Z" fill="#ECB79E"/>
<path d="M26.4659 32.365L37.0415 35.1324C37.0415 35.1324 40.6595 35.6953 41.5872 38.9787L43.1643 44.9357H22.5696H22.384H1.83569L3.41277 38.9787C4.34046 35.6953 7.95845 35.1324 7.95845 35.1324L18.4877 32.365H26.4659Z" fill="#ECB79E"/>
<path d="M1.83569 44.9357L3.41277 38.9787C4.34046 35.6953 7.95845 35.1324 7.95845 35.1324L18.4877 32.365H26.4659L37.0415 35.1324C37.0415 35.1324 40.6595 35.6953 41.5872 38.9787L43.1643 44.9357" fill="white"/>
<path d="M23.1726 32.365H22.5232H22.4768H21.8274L19.8793 35.4608L21.5955 37.4308H22.4768H22.5232H23.3581L25.1207 35.4608L23.1726 32.365Z" fill="#FFB900"/>
<path d="M23.4509 37.0556C22.3377 35.836 21.8274 34.0067 22.1521 32.365H21.8274L19.8793 35.4608L21.5955 37.4308H23.3581L23.59 37.1963C23.5436 37.1025 23.4973 37.1025 23.4509 37.0556Z" fill="#FF9500"/>
<path d="M26.4195 30.3949L22.4768 32.5057L25.0743 36.4457L29.7592 33.5845L26.4195 30.3949Z" fill="#BCBEC0"/>
<path d="M26.4195 30.3949L22.4768 32.5057L25.1207 35.9298L29.5272 33.35L26.4195 30.3949Z" fill="white"/>
<path d="M18.5341 30.2543L22.4768 32.365L19.8793 36.3051L15.1481 33.4439L18.5341 30.2543Z" fill="#BCBEC0"/>
<path d="M18.5342 30.2542L22.4768 32.365L19.8329 35.7891L15.4264 33.2093L18.5342 30.2542Z" fill="white"/>
<path d="M15.4727 33.1624L7.95845 35.1324C7.95845 35.1324 4.34046 35.6953 3.41277 38.9787L1.83569 44.9357H43.1643L41.5872 38.9787C40.6595 35.6953 37.0415 35.1324 37.0415 35.1324L29.1562 32.834L22.4768 44.6074L15.4727 33.1624Z" fill="#1565C0"/>
<path d="M21.5955 37.4308L20.6214 41.6054L22.4768 44.6074L24.1466 41.6054L23.3581 37.4308H21.5955Z" fill="#FFB900"/>
<path d="M15.4727 33.1624L11.9011 34.1005L13.942 34.8979L12.6897 36.305L19.8793 44.9357H22.6623L15.4727 33.1624Z" fill="#1E88E5"/>
<path d="M29.1562 32.834L33.0988 34.0067L31.0579 34.8979L32.3103 36.3051L25.1207 44.9357H22.3376L29.1562 32.834Z" fill="#1E88E5"/>
<path d="M30.3157 21.905L29.6664 22.3272L30.3157 15.6665L29.2489 13.3682C29.2489 13.3682 30.223 8.20855 22.9406 8.06783C22.9406 8.06783 16.7715 7.73949 15.9829 10.5538C15.9829 10.5538 12.6433 5.01896 21.6419 3.7056C21.6419 3.7056 30.6404 2.95511 31.6145 8.48998C31.6145 8.48998 32.3103 14.5877 31.1507 17.1675L30.3157 21.905Z" fill="#212121"/>
<path d="M13.2927 11.5389C13.2927 11.5389 13.3854 13.7904 13.8029 17.1676L14.5914 21.905L15.2408 22.3272L14.5914 15.6666L15.7047 12.993L15.9366 10.8353L16.0293 10.5539V6.89523C13.3854 7.22357 13.2927 11.5389 13.2927 11.5389Z" fill="#212121"/>
<path d="M16.4004 7.31736C16.5859 7.55189 16.9106 7.88023 17.0034 8.06785C17.0498 7.73951 16.8642 7.45808 16.8642 7.12974C17.3745 7.36427 17.9775 7.45808 18.4877 7.6457C18.4877 7.36427 18.3949 7.03593 18.3485 6.75449C19.1835 6.66068 19.6937 7.41117 20.4822 7.41117C20.5286 6.98902 20.2967 6.66068 20.2967 6.23853C21.1316 6.19162 21.8274 6.94211 22.6159 6.89521C22.5695 6.61377 22.4768 6.23853 22.4304 5.9571C23.1725 5.91019 24.3785 6.89521 24.9351 7.31736C24.9351 6.94211 24.9351 6.56687 24.9815 6.19162C26.0484 6.61377 26.8833 7.41117 27.811 8.02094C27.8574 7.69261 27.7182 7.41117 27.7182 7.08283C28.8314 7.59879 29.4344 8.95906 30.223 9.89717C30.223 9.61574 30.0374 9.42811 30.0374 9.19359C30.223 9.47502 30.4085 9.75645 30.6404 10.0379C30.1766 9.42811 29.8519 8.58381 29.5736 7.88023C29.6664 8.11476 29.8055 8.39619 29.9447 8.63072C29.4808 7.97404 28.7387 7.31736 28.5067 6.51996C28.4604 6.70759 28.5531 6.89521 28.6923 7.08283C28.3212 6.61377 27.5327 5.86328 26.9761 5.67566C27.0224 5.9571 27.3007 6.14472 27.3471 6.42615C26.9297 6.19162 26.4658 5.62876 26.002 5.53494C26.0484 5.62876 26.002 5.76947 26.0484 5.81638C25.4918 5.91019 24.8424 5.39423 24.3785 5.11279C24.3785 5.30042 24.4713 5.44113 24.4713 5.62876C24.0538 5.53494 23.6364 5.1597 23.2189 5.11279C23.1725 5.25351 23.1725 5.39423 23.2189 5.53494C22.6159 5.58185 22.0593 5.30042 21.4563 5.39423C21.4563 5.44113 21.4563 5.62876 21.5027 5.67566C21.2244 5.53494 20.4822 5.30042 20.1575 5.44113C19.8792 5.53494 19.9256 5.58185 19.972 5.91019C19.4618 5.9571 18.9979 5.91019 18.4877 5.91019C18.4877 6.05091 18.4413 6.19162 18.4413 6.33234C18.0702 6.37925 17.7455 6.28543 17.3745 6.28543C17.3745 6.37925 17.3281 6.42615 17.3281 6.51996C16.957 6.51996 16.4004 6.37925 16.4932 6.94211C16.4468 6.94211 16.4004 6.94211 16.354 6.89521C16.3076 7.08283 16.354 7.22355 16.5395 7.27045" fill="#424242"/>
<path d="M15.2408 7.45807C15.2872 8.06784 15.6583 8.5369 15.6119 9.19358C15.5655 9.70954 15.4264 10.6477 14.9625 10.976C14.9625 12.3832 15.0553 14.5877 14.0812 15.7604C13.9421 15.3382 13.8957 14.7284 13.6174 14.3532C13.7565 14.447 13.8957 14.5408 14.0812 14.5408C13.9884 13.9311 13.6174 13.1337 13.7101 12.477C13.9421 12.6646 14.1276 12.8522 14.3595 13.0398C14.4059 12.6177 14.0348 12.2894 13.9421 11.9141C13.8493 11.5389 13.6174 10.6007 13.6638 10.1786C13.9421 10.3193 14.174 10.6477 14.4059 10.8822C14.3595 10.46 14.3595 9.99098 14.3595 9.56882C14.5451 9.61573 14.6842 9.70954 14.8698 9.75645C14.9161 9.42811 14.6842 9.19358 14.6378 8.91214C14.5914 8.67762 14.5914 8.44309 14.5914 8.20856C14.777 8.30237 14.9625 8.44309 15.1481 8.58381C15.0553 8.34928 14.8234 7.7395 15.0553 7.50497" fill="#424242"/>
</g>
<defs>
<clipPath id="clip0_3470_13071">
<rect width="45" height="44.9357" rx="22.4678" fill="white"/>
</clipPath>
</defs>
</svg>
