<svg width="82" height="89" viewBox="0 0 82 89" fill="none" xmlns="http://www.w3.org/2000/svg">
<rect x="0.229492" y="14.4836" width="72.2519" height="74.5183" rx="9.28252" fill="#BA5E44"/>
<path d="M0.229492 23.7661C0.229492 18.6395 4.38542 14.4836 9.51201 14.4836H17.8956V89.0019H9.51201C4.38542 89.0019 0.229492 84.846 0.229492 79.7194V23.7661Z" fill="#824042" fill-opacity="0.22"/>
<path d="M52.9243 60.6974C52.9243 55.5708 57.0802 51.4149 62.2068 51.4149H81.7708V60.9924C81.7708 66.119 77.6149 70.2749 72.4883 70.2749H62.2068C57.0802 70.2749 52.9243 66.119 52.9243 60.9924V60.6974Z" fill="#F8B46E"/>
<circle cx="62.5786" cy="60.8449" r="4.92182" fill="#994D47"/>
<rect x="0.229492" y="14.4836" width="72.2519" height="25.2387" rx="9.28252" fill="#824042"/>
<rect x="3.46948" y="17.3632" width="65.7714" height="18.9042" rx="9.28252" fill="#492930"/>
<path fill-rule="evenodd" clip-rule="evenodd" d="M1.05148 37.7263C1.48387 37.7263 1.8344 38.0768 1.8344 38.5092C1.8344 39.5407 2.06962 40.5151 2.48863 41.3837C2.67651 41.7731 2.51312 42.2411 2.12367 42.429C1.73423 42.6169 1.26621 42.4535 1.07833 42.064C0.559156 40.9879 0.268555 39.7814 0.268555 38.5092C0.268555 38.0768 0.619081 37.7263 1.05148 37.7263ZM71.7686 37.7263C72.201 37.7263 72.5515 38.0768 72.5515 38.5092C72.5515 39.7814 72.2609 40.9879 71.7417 42.064C71.5538 42.4535 71.0858 42.6169 70.6964 42.429C70.3069 42.2411 70.1435 41.7731 70.3314 41.3837C70.7504 40.5151 70.9856 39.5407 70.9856 38.5092C70.9856 38.0768 71.3362 37.7263 71.7686 37.7263ZM4.53923 44.8446C4.72711 44.4551 5.19512 44.2917 5.58457 44.4796C6.45308 44.8986 7.42749 45.1338 8.45905 45.1338H11.6534C12.0858 45.1338 12.4364 45.4843 12.4364 45.9167C12.4364 46.3491 12.0858 46.6997 11.6534 46.6997H8.45905C7.18685 46.6997 5.98032 46.4091 4.90418 45.8899C4.51474 45.702 4.35134 45.234 4.53923 44.8446ZM68.2808 44.8446C68.4687 45.234 68.3053 45.702 67.9159 45.8899C66.8397 46.4091 65.6332 46.6997 64.361 46.6997H61.1666C60.7342 46.6997 60.3837 46.3491 60.3837 45.9167C60.3837 45.4843 60.7342 45.1338 61.1666 45.1338H64.361C65.3926 45.1338 66.367 44.8986 67.2355 44.4796C67.6249 44.2917 68.0929 44.4551 68.2808 44.8446ZM15.6621 45.9167C15.6621 45.4843 16.0126 45.1338 16.445 45.1338H22.8338C23.2662 45.1338 23.6168 45.4843 23.6168 45.9167C23.6168 46.3491 23.2662 46.6997 22.8338 46.6997H16.445C16.0126 46.6997 15.6621 46.3491 15.6621 45.9167ZM26.8425 45.9167C26.8425 45.4843 27.193 45.1338 27.6254 45.1338H34.0142C34.4466 45.1338 34.7971 45.4843 34.7971 45.9167C34.7971 46.3491 34.4466 46.6997 34.0142 46.6997H27.6254C27.193 46.6997 26.8425 46.3491 26.8425 45.9167ZM38.0229 45.9167C38.0229 45.4843 38.3734 45.1338 38.8058 45.1338H45.1946C45.627 45.1338 45.9775 45.4843 45.9775 45.9167C45.9775 46.3491 45.627 46.6997 45.1946 46.6997H38.8058C38.3734 46.6997 38.0229 46.3491 38.0229 45.9167ZM49.2033 45.9167C49.2033 45.4843 49.5538 45.1338 49.9862 45.1338H56.375C56.8074 45.1338 57.1579 45.4843 57.1579 45.9167C57.1579 46.3491 56.8074 46.6997 56.375 46.6997H49.9862C49.5538 46.6997 49.2033 46.3491 49.2033 45.9167Z" fill="#D37F52"/>
<path fill-rule="evenodd" clip-rule="evenodd" d="M1.05148 71.6847C1.48387 71.6847 1.8344 72.0352 1.8344 72.4676C1.8344 73.4992 2.06962 74.4736 2.48863 75.3421C2.67651 75.7315 2.51312 76.1996 2.12367 76.3874C1.73423 76.5753 1.26621 76.4119 1.07833 76.0225C0.559156 74.9463 0.268555 73.7398 0.268555 72.4676C0.268555 72.0352 0.619081 71.6847 1.05148 71.6847ZM71.7686 71.6847C72.201 71.6847 72.5515 72.0352 72.5515 72.4676C72.5515 73.7398 72.2609 74.9463 71.7417 76.0225C71.5538 76.4119 71.0858 76.5753 70.6964 76.3874C70.3069 76.1996 70.1435 75.7315 70.3314 75.3421C70.7504 74.4736 70.9856 73.4992 70.9856 72.4676C70.9856 72.0352 71.3362 71.6847 71.7686 71.6847ZM4.53923 78.803C4.72711 78.4135 5.19512 78.2501 5.58457 78.438C6.45308 78.857 7.42749 79.0923 8.45905 79.0923H11.6534C12.0858 79.0923 12.4364 79.4428 12.4364 79.8752C12.4364 80.3076 12.0858 80.6581 11.6534 80.6581H8.45905C7.18685 80.6581 5.98032 80.3675 4.90418 79.8483C4.51474 79.6604 4.35134 79.1924 4.53923 78.803ZM68.2808 78.803C68.4687 79.1924 68.3053 79.6604 67.9159 79.8483C66.8397 80.3675 65.6332 80.6581 64.361 80.6581H61.1666C60.7342 80.6581 60.3837 80.3076 60.3837 79.8752C60.3837 79.4428 60.7342 79.0923 61.1666 79.0923H64.361C65.3926 79.0923 66.367 78.857 67.2355 78.438C67.6249 78.2501 68.0929 78.4135 68.2808 78.803ZM15.6621 79.8752C15.6621 79.4428 16.0126 79.0923 16.445 79.0923H22.8338C23.2662 79.0923 23.6168 79.4428 23.6168 79.8752C23.6168 80.3076 23.2662 80.6581 22.8338 80.6581H16.445C16.0126 80.6581 15.6621 80.3076 15.6621 79.8752ZM26.8425 79.8752C26.8425 79.4428 27.193 79.0923 27.6254 79.0923H34.0142C34.4466 79.0923 34.7971 79.4428 34.7971 79.8752C34.7971 80.3076 34.4466 80.6581 34.0142 80.6581H27.6254C27.193 80.6581 26.8425 80.3076 26.8425 79.8752ZM38.0229 79.8752C38.0229 79.4428 38.3734 79.0923 38.8058 79.0923H45.1946C45.627 79.0923 45.9775 79.4428 45.9775 79.8752C45.9775 80.3076 45.627 80.6581 45.1946 80.6581H38.8058C38.3734 80.6581 38.0229 80.3076 38.0229 79.8752ZM49.2033 79.8752C49.2033 79.4428 49.5538 79.0923 49.9862 79.0923H56.375C56.8074 79.0923 57.1579 79.4428 57.1579 79.8752C57.1579 80.3076 56.8074 80.6581 56.375 80.6581H49.9862C49.5538 80.6581 49.2033 80.3076 49.2033 79.8752Z" fill="#D37F52"/>
<path d="M72.4814 43.4325H78.2898C80.2123 43.4325 81.7707 44.991 81.7707 46.9134V51.4151H72.4814V43.4325Z" fill="#F8B46E"/>
<path d="M72.4814 45.9169H75.3139C76.8322 45.9169 78.063 47.1477 78.063 48.666C78.063 50.1843 76.8322 51.4151 75.3139 51.4151H72.4814V45.9169Z" fill="#994D47"/>
<path d="M28.7212 3.48283C28.7212 1.56036 30.2797 0.00189209 32.2021 0.00189209H61.9308C63.8532 0.00189209 65.4117 1.56036 65.4117 3.48284V32.7864C65.4117 34.7089 63.8532 36.2673 61.9308 36.2673H28.7212V3.48283Z" fill="#5C9937"/>
<path d="M32.7231 5.81431C32.7231 5.17348 33.2426 4.65399 33.8835 4.65399H60.2494C60.8902 4.65399 61.4097 5.17348 61.4097 5.81431V36.2673H32.7231V5.81431Z" fill="#92BE30"/>
<path d="M51.8206 36.2673C51.8206 35.643 51.6976 35.0248 51.4587 34.448C51.2198 33.8711 50.8696 33.3471 50.4281 32.9056C49.9867 32.4641 49.4626 32.1139 48.8858 31.875C48.309 31.6361 47.6908 31.5131 47.0664 31.5131C46.4421 31.5131 45.8239 31.6361 45.2471 31.875C44.6703 32.1139 44.1462 32.4641 43.7047 32.9056C43.2633 33.3471 42.9131 33.8711 42.6741 34.448C42.4352 35.0248 42.3123 35.643 42.3123 36.2673L47.0664 36.2673H51.8206Z" fill="#5C9937"/>
<circle cx="59.8421" cy="8.12636" r="4.75417" fill="#5C9937"/>
<circle cx="33.7578" cy="7.50271" r="4.75417" fill="#5C9937"/>
<path d="M12.0681 17.9645C12.0681 16.0421 13.6266 14.4836 15.5491 14.4836H46.1193C48.0418 14.4836 49.6003 16.0421 49.6003 17.9645V36.2673H12.0681V17.9645Z" fill="black" fill-opacity="0.2"/>
<path d="M9.25049 11.3209C9.25049 9.39844 10.809 7.83997 12.7314 7.83997H42.4601C44.3825 7.83997 45.941 9.39844 45.941 11.3209V36.2675H10.4108C9.76998 36.2675 9.25049 35.748 9.25049 35.1071V11.3209Z" fill="#F88029"/>
<path d="M13.2524 13.6523C13.2524 13.0115 13.7719 12.492 14.4128 12.492H40.7787C41.4195 12.492 41.939 13.0115 41.939 13.6523V36.2675H13.2524V13.6523Z" fill="#FFB63B"/>
<circle cx="40.3714" cy="15.9646" r="4.75417" fill="#F88029"/>
<circle cx="14.2871" cy="15.3408" r="4.75417" fill="#F88029"/>
</svg>
